<svg fill="none" xmlns="http://www.w3.org/2000/svg" viewBox="0 0 26 28">
  <path d="M15.9009 16.0376c.0004-1.9111.0008-3.822.0018-5.7329 1.3745 1.2985 2.7556 2.5977 4.1524 3.8826 1.1787 1.0853 2.9421 1.1569 4.0952.0621.5775-.5477.8818-1.273.847-2.0372-.0343-.7543-.393-1.4546-.9656-2-.4475-.42578-.902-.84997-1.352-1.26989-.1984-.18512-.3959-.36949-.5918-.55296-.6509-.6098-1.3019-1.21992-1.9529-1.83013-1.6281-1.52598-3.2569-3.05258-4.888-4.57653-.4721-.44173-1.0087-.77317-1.6148-.91212-.6188-.141845-1.2306-.06457-1.8064.18427-.5123.22095-.8892.57274-1.1398.80668l-.0078.00719-.0011.00107C7.83182 4.73334 4.98704 7.39741 2.14533 10.0642c-.19756.1851-.41044.4031-.60022.6525-.726288.9546-.718186 2.2142-.02727 3.1653 1.09638 1.5098 3.1439 1.4945 4.47679.2384.53972-.5085 1.09801-1.0187 1.66298-1.535.80816-.7386 1.62998-1.4897 2.43059-2.2659V23.8235c-.0001.2799-.0003.7081.135 1.1478.4052 1.3179 1.6473 2.1083 3.0053 2.0222 1.3254-.0849 2.3959-1.0499 2.5992-2.3799.0509-.3347.0702-.667.0702-.9856.002-2.5301.0025-5.0606.003-7.5904Z" stroke="#445964" stroke-width="2"/>
</svg>
