<svg xmlns="http://www.w3.org/2000/svg" version="1.1" width="256" height="256" viewBox="0 0 256 256" xml:space="preserve">
<g style="stroke: none; stroke-width: 0; stroke-dasharray: none; stroke-linecap: butt; stroke-linejoin: miter; stroke-miterlimit: 10; fill: none; fill-rule: nonzero; opacity: 1;" transform="translate(1.4065934065934016 1.4065934065934016) scale(2.81 2.81)">
	<path d="M 76.82 13.18 C 84.963 21.324 90 32.574 90 45 c 0 24.853 -20.147 45 -45 45 c -8.265 0 -16.003 -2.238 -22.659 -6.127 L 0 90 C 25.589 59.644 51.191 32.786 76.82 13.18 z" style="stroke: none; stroke-width: 1; stroke-dasharray: none; stroke-linecap: butt; stroke-linejoin: miter; stroke-miterlimit: 10; fill: #445964; fill-rule: nonzero; opacity: 1;" transform=" matrix(1 0 0 1 0 0) " stroke-linecap="round"/>
    <path d="M 76.82 13.18 C 68.676 5.037 57.426 0 45 0 C 20.147 0 0 20.147 0 45 c 0 8.265 2.238 16.003 6.127 22.659 L 0 90 L 76.82 13.18 z" style="stroke: none; stroke-width: 1; stroke-dasharray: none; stroke-linecap: butt; stroke-linejoin: miter; stroke-miterlimit: 10; fill: #445964; fill-rule: nonzero; opacity: 1;" transform=" matrix(1 0 0 1 0 0) " stroke-linecap="round"/>
    <path d="M 67.012 60.532 c 0.929 -2.603 0.929 -4.834 0.651 -5.299 c -0.279 -0.465 -1.022 -0.744 -2.137 -1.301 c -1.115 -0.557 -6.595 -3.254 -7.617 -3.626 c -1.022 -0.372 -1.765 -0.557 -2.509 0.559 c -0.743 1.115 -2.878 3.625 -3.529 4.368 c -0.65 0.745 -1.301 0.838 -2.415 0.28 c -1.115 -0.559 -4.705 -1.735 -8.964 -5.532 c -0.084 -0.075 -0.164 -0.152 -0.246 -0.227 c -3.125 0.975 -5.031 2.819 -5.61 5.61 c 3.047 2.934 6.923 5.883 11.476 7.679 c 9.416 3.713 11.333 2.975 13.376 2.789 C 61.532 65.645 66.083 63.135 67.012 60.532 z" style="stroke: none; stroke-width: 1; stroke-dasharray: none; stroke-linecap: butt; stroke-linejoin: miter; stroke-miterlimit: 10; fill: rgb(240,240,240); fill-rule: nonzero; opacity: 1;" transform=" matrix(1 0 0 1 0 0) " stroke-linecap="round"/>
    <path d="M 34.636 55.364 l 5.61 -5.61 c -3.177 -2.912 -5.321 -6.404 -5.955 -7.492 c -0.65 -1.115 -0.069 -1.718 0.49 -2.274 c 0.501 -0.499 1.115 -1.302 1.673 -1.952 c 0.556 -0.651 0.742 -1.116 1.113 -1.859 c 0.372 -0.744 0.186 -1.395 -0.093 -1.953 c -0.279 -0.558 -2.445 -6.07 -3.436 -8.274 l 0.001 0 c -0.835 -1.856 -1.714 -1.894 -2.508 -1.926 c -0.65 -0.028 -1.394 -0.026 -2.136 -0.026 c -0.743 0 -1.951 0.279 -2.972 1.394 c -1.022 1.116 -3.902 3.812 -3.902 9.296 c 0 5.485 3.995 10.784 4.551 11.529 C 27.404 46.662 30.1 50.996 34.636 55.364 z" style="stroke: none; stroke-width: 1; stroke-dasharray: none; stroke-linecap: butt; stroke-linejoin: miter; stroke-miterlimit: 10; fill: rgb(255,255,255); fill-rule: nonzero; opacity: 1;" transform=" matrix(1 0 0 1 0 0) " stroke-linecap="round"/>
</g>
</svg>
