<svg xmlns="http://www.w3.org/2000/svg" width="68.19" height="32.063" viewBox="0 0 68.19 32.063">
  <g id="Grupo_128" data-name="Grupo 128" transform="translate(692.711 -53.277)">
    <path id="Caminho_1351" data-name="Caminho 1351" d="M-659.315,78.709a9.873,9.873,0,0,1-3.777-3.447,8.919,8.919,0,0,1-1.419-4.933,8.947,8.947,0,0,1,.822-3.813,9.442,9.442,0,0,1,2.258-3.061,10.33,10.33,0,0,1,3.306-2.014,11.081,11.081,0,0,1,3.866-.7,11.146,11.146,0,0,1,3.884.7,9.963,9.963,0,0,1,3.306,1.995,9.611,9.611,0,0,1,2.257,3.081,8.935,8.935,0,0,1,.822,3.813,8.948,8.948,0,0,1-.8,3.814,9.653,9.653,0,0,1-2.274,3.1,10.426,10.426,0,0,1-3.306,2.012,10.59,10.59,0,0,1-3.884.717A10.658,10.658,0,0,1-659.315,78.709Zm1.786-5.161a4.527,4.527,0,0,0,3.271,1.348,4.551,4.551,0,0,0,3.289-1.348,4.313,4.313,0,0,0,1.4-3.219,4.173,4.173,0,0,0-.647-2.257,4.786,4.786,0,0,0-1.733-1.644,4.552,4.552,0,0,0-2.309-.613,4.577,4.577,0,0,0-2.291.613,4.779,4.779,0,0,0-1.733,1.644,4.168,4.168,0,0,0-.648,2.257A4.312,4.312,0,0,0-657.529,73.549Z" transform="translate(-4.366 -1.156)" fill="#fff"/>
    <path id="Caminho_1352" data-name="Caminho 1352" d="M-631.114,78.709a9.879,9.879,0,0,1-3.779-3.447,8.93,8.93,0,0,1-1.417-4.933,8.911,8.911,0,0,1,.823-3.813,9.422,9.422,0,0,1,2.256-3.061,10.358,10.358,0,0,1,3.308-2.014,11.079,11.079,0,0,1,3.867-.7,11.144,11.144,0,0,1,3.884.7,10,10,0,0,1,3.308,1.995,9.658,9.658,0,0,1,2.256,3.081,8.96,8.96,0,0,1,.821,3.813,8.923,8.923,0,0,1-.8,3.814,9.647,9.647,0,0,1-2.272,3.1,10.453,10.453,0,0,1-3.308,2.012,10.582,10.582,0,0,1-3.884.717A10.661,10.661,0,0,1-631.114,78.709Zm1.785-5.161a4.525,4.525,0,0,0,3.272,1.348,4.548,4.548,0,0,0,3.288-1.348,4.318,4.318,0,0,0,1.4-3.219,4.175,4.175,0,0,0-.647-2.257,4.8,4.8,0,0,0-1.733-1.644,4.555,4.555,0,0,0-2.309-.613,4.582,4.582,0,0,0-2.292.613,4.78,4.78,0,0,0-1.733,1.644,4.165,4.165,0,0,0-.647,2.257A4.31,4.31,0,0,0-629.329,73.549Z" transform="translate(-8.732 -1.156)" fill="#fff"/>
    <path id="Caminho_1353" data-name="Caminho 1353" d="M-687.515,78.709a9.877,9.877,0,0,1-3.779-3.447,8.923,8.923,0,0,1-1.417-4.933,8.921,8.921,0,0,1,.823-3.813,9.414,9.414,0,0,1,2.257-3.061,10.351,10.351,0,0,1,3.306-2.014,11.082,11.082,0,0,1,3.867-.7,11.134,11.134,0,0,1,3.884.7,9.983,9.983,0,0,1,3.307,1.995,9.569,9.569,0,0,1,2.256,3.081,8.91,8.91,0,0,1,.822,3.813,8.935,8.935,0,0,1-.8,3.814,9.613,9.613,0,0,1-2.273,3.1,10.42,10.42,0,0,1-3.307,2.012,10.575,10.575,0,0,1-3.884.717A10.655,10.655,0,0,1-687.515,78.709Zm1.785-5.161a4.525,4.525,0,0,0,3.272,1.348,4.549,4.549,0,0,0,3.289-1.348,4.311,4.311,0,0,0,1.4-3.219,4.161,4.161,0,0,0-.649-2.257,4.788,4.788,0,0,0-1.731-1.644,4.552,4.552,0,0,0-2.309-.613,4.585,4.585,0,0,0-2.292.613,4.77,4.77,0,0,0-1.732,1.644,4.168,4.168,0,0,0-.648,2.257A4.314,4.314,0,0,0-685.73,73.549Z" transform="translate(0 -1.156)" fill="#fff"/>
    <path id="Caminho_1354" data-name="Caminho 1354" d="M-632.137,83.559a11.94,11.94,0,0,1-4.174-3.6v9.514h8.345V84.936A12.861,12.861,0,0,1-632.137,83.559Z" transform="translate(-8.732 -4.131)" fill="#fff"/>
    <path id="Caminho_1355" data-name="Caminho 1355" d="M-647.318,58.591a11.918,11.918,0,0,1,3.973,2.4,11.793,11.793,0,0,1,1.516,1.678V53.277h-8.344v4.6A13.36,13.36,0,0,1-647.318,58.591Z" transform="translate(-6.586 0)" fill="#fff"/>
    <path id="Caminho_1356" data-name="Caminho 1356" d="M-671.026,81.5a12.864,12.864,0,0,1-1.784,1.338h3.7V79.245A11.813,11.813,0,0,1-671.026,81.5Z" transform="translate(-3.081 -4.021)" fill="#fff"/>
  </g>
</svg>
