<svg xmlns="http://www.w3.org/2000/svg" viewBox="0 0 3108 1834.37"><defs><style>.cls-1{fill:#faaa03;}.cls-2{fill:#faa703;}.cls-3{fill:#d18e02;}.cls-4{fill:#ea9f02;}.cls-5{fill:#e49b02;}.cls-6{fill:#c95200;}.cls-7{fill:#cd8c02;}.cls-8{fill:#c28402;}.cls-9{fill:#963d00;}.cls-10{fill:#8f6101;}.cls-11{fill:#ff6800;}.cls-12{fill:#fb9602;}.cls-13{fill:#ff6700;}.cls-14{fill:#fb9902;}.cls-15{fill:#ff6c00;}.cls-16{fill:#fba003;}.cls-17{fill:#ff6400;}.cls-18{fill:#ff7400;}.cls-19{fill:#faa303;}.cls-20{fill:#fb9c02;}.cls-21{fill:#ff7100;}.cls-22{fill:#ff6a00;}.cls-23{fill:#ff7900;}.cls-24{fill:#fe7701;}.cls-25{fill:#ff6f00;}.cls-26{fill:#fe7401;}.cls-27{fill:#fe7001;}.cls-28{fill:#fe6c00;}.cls-29{fill:#ff7d00;}.cls-30{fill:#ff6900;}.cls-31{fill:#ff6500;}.cls-32{fill:#fc9102;}.cls-33{fill:#fd8101;}.cls-34{fill:#fc8e02;}.cls-35{fill:#fc8b02;}.cls-36{fill:#fc8702;}.cls-37{fill:#fd8401;}.cls-38{fill:#fd7c01;}.cls-39{fill:#ff8100;}</style></defs><g id="Layer_2" data-name="Layer 2"><g id="Layer_1-2" data-name="Layer 1"><path class="cls-1" d="M1708,1834.37c-2.47-4-6.81-3.2-10.46-3.83-43.57-7.57-83-24.3-116.53-53.52-38.87-33.82-62-76.82-73-126.72a287.68,287.68,0,0,1-6.59-62.48q0-376.93,0-753.87c0-9.66.4-19.31.58-29,.35-19.28,13.47-32.72,32.72-32.88,27-.21,54-.06,81-.06,26.32,0,52.69.81,79-.26,19.81-.81,36.61,13.28,36.54,36.66-.42,157.31-.21,314.62-.21,471.92,0,51,.08,102,0,153q-.15,66.48-.67,133a83.23,83.23,0,0,0,3.84,26.58c8,24.28,29.19,39,56.77,39.14,29,.16,58,0,87,0,2.34,0,4.67,0,7,0,4.91-.08,7.48,2.18,7.41,7.21,0,2,0,4,0,6q0,88-.08,176c0,3.75,1.63,8-2.13,11.18-3.46,1.8-7.18.9-10.77.91-34.87.07-69.74,0-104.61.09-3.58,0-7.31-.93-10.75.95Z"/><path class="cls-2" d="M3083.82,260.35a1.13,1.13,0,0,1,.37,1.5c1.47,1.9-.13,4.76,2,6.47l0-.14c1.59,1.77.06,4.46,1.82,6.18a.73.73,0,0,1,.3,1.19c.57,1.57.61,3.31,1.49,4.79a1.54,1.54,0,0,1,.34,1.81c1.64,1.77.2,4.39,1.72,6.19a1.38,1.38,0,0,1,.32,1.7c1.52,1.85.23,4.42,1.62,6.3,5.37,17.4,7.66,35.4,10.17,53.34,1.22,8.8,1.65,17.72,2.44,26.58,1.18,2.35.44,4.88.65,7.32V388c.39,2.79-.93,5.79,1,8.39v86c-1.76,2-.7,4.45-1,6.69v4.28c-.21,2.38.52,4.84-.64,7.14-1.45,26.89-7.06,53.12-12.94,79.29a11.64,11.64,0,0,1-1.35,2.62c-1.81,2-.72,4.79-1.82,7l.22.56-.44.42c-1.83,1.9-.5,4.65-1.8,6.7a.88.88,0,0,1-.31,1.32c-1.7,1.75-.22,4.41-1.78,6.19l.05-.16c-2.1,1.81-.65,4.66-2,6.71a.81.81,0,0,1-.32,1.26c-1.68,5-4.43,5.27-7.85,1.64-2.5-2.64-2.5-6.14-2.51-9.42q-.67-167.1,0-334.21c0-2.65-.13-5.54,1.27-7.8C3076.91,259.17,3079.35,255.13,3083.82,260.35Z"/><path class="cls-3" d="M0,875.42c30-.22,60-.62,90,.21-1.19,7.18-7.13,6.07-11.76,6.24-17.31.63-34.64.18-52,.29-17.81.11-19.51,1.7-19.52,19.41q-.07,202.08,0,404.15,0,253.59-.14,507.18c0,7.28,2.64,15.59-4.65,21.47L0,1834.14Z"/><path class="cls-4" d="M1764,1834.37c3.51-2.61,7.61-2,11.55-2q57.29,0,114.58,0a18.24,18.24,0,0,0-.13,1.95Z"/><path class="cls-5" d="M1010,1834.37c5.74-3.45,12-1.53,18.12-1.89q1.94,1.07-.12,1.89Z"/><path class="cls-6" d="M2147.77,1832.58c5.48,0,11.09-1.31,16.23,1.79h-16C2146.63,1834,2146.55,1833.35,2147.77,1832.58Z"/><path class="cls-6" d="M2194,1834.37c4.46-2.9,9.4-1.81,14.22-1.69.75.48,1,.89.65,1.23a1.18,1.18,0,0,1-.87.46Z"/><path class="cls-7" d="M977.77,1832.61c4.83-.1,9.79-1.24,14.23,1.76H978C976.63,1834,976.56,1833.36,977.77,1832.61Z"/><path class="cls-8" d="M1028,1834.37q0-.94.12-1.89l8.17.27c.64.49.81.89.51,1.21a1.12,1.12,0,0,1-.8.41Z"/><path class="cls-9" d="M2208,1834.37c.06-.56.14-1.13.22-1.69l5.9-.06c1.35.68,1.32,1.26-.12,1.75Z"/><path class="cls-10" d="M977.77,1832.61a13,13,0,0,1,.23,1.76h-6c-1.44-.48-1.48-1.06-.12-1.73Z"/><path class="cls-1" d="M1.93,1833.52c.05-5.33.15-10.66.15-16q0-461.44,0-922.89c0-18.77-1.19-17.37,17.25-17.39,19.67,0,39.33,0,59,0,4,0,8,.69,11.67-1.71,3.66-.13,7.32-.36,11-.36q319.44,0,638.86,0c4.32,0,8.75-.2,12.94.65,13.59,2.74,24,14.82,25.2,28.79.23,2.65.19,5.33.19,8q0,77,0,154c0,5.32.16,10.64-1.89,15.76-5.18,13-14.43,20.46-28.52,21.49-3.32.24-6.66.09-10,.09H248.87c-11.84,0-10.86-.65-10.86,10.74q0,70,0,140c0,1.67.1,3.34,0,5-.23,3.75,1.3,5.58,5.21,5.37,2.65-.14,5.33,0,8,0H664.1c3.33,0,6.67-.06,10,.07,18.63.79,31.71,14.07,31.86,32.82.19,23.32,0,46.65,0,70,0,28.66-1.07,57.37.32,86,1.25,25.62-14.42,40.58-39.93,40.44-138-.74-275.94-.37-413.91-.32-16.8,0-14.43-2.05-14.44,14.09q-.1,157.47-.07,314.93c0,11.71,1.92,11.35-11.19,11.35q-107.47,0-214.95,0C8.52,1834.27,5.15,1834.78,1.93,1833.52Z"/><path class="cls-1" d="M2322,770.71c-34.59-1.3-66.89-11.27-97.18-27.37-65.62-34.88-110.89-88.37-135.33-157.83-39.2-111.46-25.58-216.72,45.77-312.06,37.72-50.41,88.17-83.42,150-97.91,14.94-3.5,30-5.89,45.47-5.62,2.6-.88,5.29-.53,7.94-.53q132.42,0,264.84,0c11.41,0,12.15.78,13.09,12.44a164.12,164.12,0,0,0,15.84,58.46c.74,1.38,1.56,2.74,2.39,4.06a9.65,9.65,0,0,1,1.17,2.47,31.54,31.54,0,0,1,1.29,3.44,12,12,0,0,1,.88,2.05,11.24,11.24,0,0,1,.88,2,8.87,8.87,0,0,1,.73,2.1,21,21,0,0,0,1.18,3.21c.4.74.8,1.45,1.27,2.15,6.5,7.14,10.82,15.94,17.73,22.72a14.6,14.6,0,0,1,2.53,2.85c.92,1.23,1.75,2.53,2.67,3.77a7.66,7.66,0,0,1,1.27,1.81c.34.64.67,1.29,1,1.94s.9,1.18,1.38,1.75c.27.28.51.56.79.83.63.49,1.25,1,1.93,1.4.36.22.67.49,1,.72q6.2,6.62,13,12.63a10.72,10.72,0,0,1,2,1.54,11.84,11.84,0,0,1,1.79,1.75,8.2,8.2,0,0,1,1.41,2l.63,1.06a21,21,0,0,0,1.71,1.82c.34.27.66.54,1,.8,5.73,2.63,9.38,8.05,14.92,10.91a11.9,11.9,0,0,1,2.15,1.41,14.77,14.77,0,0,1,2,1.55,11.65,11.65,0,0,1,1.9,1.61,12.49,12.49,0,0,1,.85.93,17.58,17.58,0,0,0,1.58,2c.65.59,1.26,1.2,1.89,1.81,8.29,7.1,16.83,13.9,24.71,21.47q.84,1.08,1.62,2.22c.6.68,1.21,1.37,1.84,2,5.67,4.58,10.37,10.2,15.85,15a11.05,11.05,0,0,1,2,1.59,12.44,12.44,0,0,1,1.74,1.74,13.74,13.74,0,0,1,1.66,1.75c.29.27.52.59.82.87a10.35,10.35,0,0,1,1.54,1.89c.22.35.4.72.6,1.07.47.69.93,1.39,1.43,2.07.3.33.57.66.86,1,11.58,10.87,24.06,20.87,33,34.27,10.39,9.13,18.39,20.42,27.73,30.51a8.4,8.4,0,0,1,1.59,2.29c.43.82.88,1.63,1.38,2.41,6.13,8.08,13.4,15.26,18.76,23.93.47.78,1,1.56,1.46,2.33s1,1.5,1.52,2.27c4.75,5.48,8.94,11.39,13.46,17.05a17.61,17.61,0,0,1,2.15,3.45,12,12,0,0,1,1.11,2.44,16.87,16.87,0,0,1,.87,5.23,19,19,0,0,0,1.17,3.94,34.84,34.84,0,0,1,1.13,4.3c17.93,50.12,5,95.92-19.54,140.09-7.61,11.15-14.15,23-23.07,33.33-5.25,6.07-10.4,12.07-16.94,16.76-14,13.31-29.57,24.28-47.75,31.24a130.47,130.47,0,0,1-35.29,11.36c-15,2.18-30.13,2.14-45.23,1.41-26.28-4.47-51.57-11.72-74.11-26.62-24.9-14.08-49.75-28.26-73.57-44.18-2.59-4.39-7.65-4.89-11.47-7.34-20.06-12.91-40.06-25.92-58.49-41.15a391.11,391.11,0,0,1-52.06-41.8c-1.93-1.84-3.78-3.87-6.23-5-3.43-1.51-7.17-5.91-10.65-2.29-2.92,3,.66,6.87,2.49,9.85,16.2,26.39,33.8,51.88,51.21,77.48,5.55,8.16,8,18.43,16.57,24.58,11.59,16.22,22.94,32.58,34.34,48.91,2.09,3,4.35,6,5.2,9.59s.33,6.72-4.55,6.62c-1.33,0-2.66,0-4,0q-89.19,0-178.37,0C2325.9,771.36,2323.89,771.59,2322,770.71Z"/><path class="cls-11" d="M2664.17,1474.84q0-172,0-344c0-15.16,0-15.17,14.83-15.17h200c2.33,0,4.66,0,7,0,4.86.06,7.38,2.57,7.6,7.37.11,2.32.07,4.66.07,7q0,345,0,690c0,1,0,2,0,3-.2,9.74-1.38,11.08-10.89,11.23-9.67.16-19.33,0-29,0h-175c-14.2,0-14.61-.43-14.61-14.5Q2664.16,1647.34,2664.17,1474.84Z"/><path class="cls-12" d="M2958.84,72a225,225,0,0,1,38.07,36.13c-10.58,2.83-10.27,11.06-10.27,19.66q.14,332.4.18,664.8c0,9.31-1.62,18.55-.71,27.86a116,116,0,0,1-12.81,21.24c-15.32,20.93-30.18,42.22-46.7,62.25-2.52,3.06-5.3,5.9-8,8.85-6.26-6.17-.48-11.26,2.16-15.82a281.26,281.26,0,0,0,21.32-47.22c17.92-50.69,19.35-102.18,7.68-154.34-1.29-5.77-3.56-11.56-1-17.6,1.28-3.48,2.47-7,1.89-10.74-2.52-16.25-1.37-32.6-1.38-48.9q-.14-257.92,0-515.86c0-7-.21-14,.49-21C2950.32,75.87,2952.11,71.52,2958.84,72Z"/><path class="cls-13" d="M2855.87,668.19c1.4-5.55,4.42-10.39,7-15.36,6.55-12.43,10.87-25.69,14.76-39.09,7.19-24.76,6.87-49.69,1-74.67-1-4.2-1.9-8.41-2.85-12.62a1.71,1.71,0,0,1,.11-2.68c2.13-.92,4.07-.32,6,.72a100.58,100.58,0,0,1,17,25.65,63.85,63.85,0,0,0,9.47,15c3,5.64,6.63,11.16,3,17.91-2.59,5.15-.66,10.51-.66,15.74q-.11,151.7-.18,303.41c0,9,1.19,18.8-6.6,26.06a556.56,556.56,0,0,1-43.62,50.91c-5.1-1.39-6.29-5.38-6.66-10-.48-6-.41-12-.41-18q0-128.2-.05-256.41A115.69,115.69,0,0,1,2855.87,668.19Z"/><path class="cls-14" d="M2986.11,820.46c-3.17-2-4.1-5.06-4.08-8.59,0-3,0-6,0-9V115.42a5.45,5.45,0,0,1,0-1c.76-4.72-2.49-11.31,2.76-13.68,4-1.78,6.23,5.13,10.28,6.67l1.86.72c5.16,4.62,10,9.57,13.5,15.59-1.61,7.63.42,15.21.41,22.83q-.2,305.17,0,610.33c0,8-2.36,15.82-.54,23.78a232.19,232.19,0,0,1-21.65,35.88c-1.87.66-1.51,2.77-2.57,4Z"/><path class="cls-15" d="M2771.94,746.22a322.63,322.63,0,0,0,45.92-30.1c4.27,1,5.79,4,6.28,8a97.53,97.53,0,0,1,.55,12q.07,131.4,0,262.78c0,8.07,0,16.12-6.49,22.28-14.43,11.13-30.35,17-48.82,13.63a64,64,0,0,1-2.13-16.78q0-126.94.06-253.88C2767.33,757.77,2767.07,751.32,2771.94,746.22Z"/><path class="cls-16" d="M3038.41,162.24a140.28,140.28,0,0,1,17.41,30.14c-3.33,7.41-1,15.13-1,22.66-.16,127.77,0,255.54-.21,383.3-.06,28.92,1.62,57.88-1.2,86.77-.25,2.62.7,5.26,1,7.9a236,236,0,0,1-18.28,39.4c-1.37,1-1,2.91-2.06,4.13l.06-.12c-1.39,1-1,2.91-2.08,4.09l.05-.1c-1.35,1-1,2.91-2.1,4v0c-5.7.28-7.39-3.54-8.1-8.14-.81-5.28-.64-10.63-.64-15.95q0-273.18,0-546.37a113.2,113.2,0,0,1,.55-15c.66-4.92,2.19-9.22,8.46-8.91l-.15-.14c.27,1.06,1.14,1.67,1.8,2.45l0,0c1.28,1,.76,3.14,2.53,3.78l-.31-.35c.21,1.11,1.09,1.75,1.76,2.53l0,0C3037.23,159.42,3036.79,161.49,3038.41,162.24Z"/><path class="cls-17" d="M2904,928.3c2.13-4.9,3.58-9.82,2.21-15.33-.63-2.52-.19-5.31-.19-8q0-153.88,0-307.77c0-5.93-.95-12.15,4-16.91l1.3-.11a7.21,7.21,0,0,1,2.53.72,10.09,10.09,0,0,1,2.19,1.6,14.13,14.13,0,0,1,2.56,3.25c5.13,8.38,6.49,18.69,13.49,26.11,6.44,17.54,15.16,34.29,18.33,53a98,98,0,0,1,1.5,15.57c1.29,12.91,5.29,25.32,6.82,38.25,2.74,23.16,4.06,46.13,1.76,69.52-3.53,36-14.15,69.6-30.37,101.65-2.7,5.33-5.89,10.42-8.92,15.58-1.36,2.31-2.92,4.49-2.61,7.37l0,0a3.63,3.63,0,0,0-2.12,1.33c-1.3,2.23-3.53,3.81-4.47,6.29A19.82,19.82,0,0,1,2904,928.3Z"/><path class="cls-18" d="M2618.09,732.3c8.6,2.53,15.73,8.1,24,11.54a189.22,189.22,0,0,0,43.52,12.74,23.81,23.81,0,0,1,4.58,1.72c-3.33,9.21-3.53,18.77-3.52,28.43q.15,78.71,0,157.4c0,4.65.19,9.31-.13,14-.32,4.83,1.3,11.14-3.86,13.6-6,2.86-7.29-5.26-11.6-7.06-11.72-10.27-21.64-22.24-31.82-33.93s-20.83-23-29.57-35.89c-.84-46.2-.26-92.4-.41-138.6a119.47,119.47,0,0,1,.56-15.94C2610.49,735.46,2612.49,732,2618.09,732.3Z"/><path class="cls-19" d="M3054.44,693c-3.29-3.26-4.48-7.29-4.42-11.81,0-2.32,0-4.65,0-7q0-232.15,0-464.3c0-3-.06-6,.17-9,.29-3.83,1.49-7.2,5.64-8.56l.48.28-.16.54a5.61,5.61,0,0,0,1.74,3.22l0,.1c1.35.92.83,2.78,1.93,3.83l.47.31-.19.53a5.59,5.59,0,0,0,1.63,3.15,261.76,261.76,0,0,1,22.05,56c-2.63-.88-4.82-.38-5.29,2.61a56.64,56.64,0,0,0-.51,8.94q0,165.69,0,331.38c0,3-.18,6.12.66,8.89,1.16,3.83,3.4,1.62,5.24.22a351,351,0,0,1-21.77,62c-1.45,1.26-1.23,3.18-1.9,4.75a.87.87,0,0,1-.44,1.26c-1,1.15-.67,2.91-1.76,4.05l0-.07c-1.3,1.14-1.07,2.94-1.85,4.31l.13-.26c-1.64,1.06-1.46,2.9-1.9,4.47Z"/><path class="cls-20" d="M3030.3,150.08c-3.12,2.94-4.25,6.65-4.26,10.82,0,2.33,0,4.66,0,7q0,279.81,0,559.6c0,5.92-1,12.15,4,16.92-4.55,11.37-10.67,21.9-17.28,32.16-2.05.66-1.72,2.75-2.52,4.16l.06-.06c-2.26.17-4-.42-4.14-3s-.15-5.33-.15-8q0-317.36,0-634.7c0-2.67,0-5.33.18-8s2.09-3.09,4.22-3.21l-.13,0a3,3,0,0,0,2.13,2.56l-.28-.31a5.31,5.31,0,0,0,2,2.39A94.81,94.81,0,0,1,3030.3,150.08Z"/><path class="cls-21" d="M2671.11,964.62c3.77.54,5.44,4.82,9.81,5.45,1.89-3.35,1-7.06,1-10.54q.11-91.89.06-183.79c0-3-.05-6,.19-9,.4-4.85,2.56-8.23,8-8.45,15.95-.07,31.95,1,47.8-1.86,2.43,6.82.65,13.82.66,20.7q.16,107.21.06,214.4c0,5.65.34,11.36-.77,16.91-1.47,7.36-4.37,8.66-11.84,5.9a454.62,454.62,0,0,1-48.5-42.3C2675.27,969.72,2672.51,967.75,2671.11,964.62Z"/><path class="cls-22" d="M2818.22,1021.13c1.56-4.47,1.8-9.09,1.8-13.78q0-138.79,0-277.57c0-4.67.15-9.35-2.15-13.65,14.39-14.62,26.34-31.17,38-47.94,2.68,4.94,2.12,10.34,2.12,15.64q0,138.34,0,276.68c0,6.37.34,12.63,2.4,18.7C2847.45,994.33,2834.88,1009.78,2818.22,1021.13Z"/><path class="cls-23" d="M2618.09,732.3c-4.82,3.07-4.07,8-4.07,12.57q0,50.89,0,101.78c0,12.64,0,25.28,0,37.92,0,4,.46,8.19-4.26,10.23l.15.06a4.58,4.58,0,0,0-2.08-2.42c-2.72-1.52-4.15-4.25-6-6.55-25.06-31.07-49.1-62.93-72.53-95.24-1.34-1.86-2.39-3.93-3.57-5.91,4.42-5.4,5.69-11.64,5.69-18.53,0-22.21-.5-44.42.25-66.62.38-11,3.23-12.91,14.35-11.2,17.59,10.6,35.24,21.12,52.75,31.85C2605.2,724.21,2612.48,726.92,2618.09,732.3Z"/><path class="cls-24" d="M2762.11,386.37a105.64,105.64,0,0,1-18.14-18c-1.57-114.53-.3-229.06-.6-343.6,0-7.12-1.64-14.85,4.51-20.75,5.74-2.6,12.08-2.35,18.06-3.81l7.9-.13,2.16.7c3.4,2.3,4.19,5.77,4.42,9.56.26,4.32.29,8.65.29,13q0,173.24,0,346.47c0,5.66.26,11.35-.69,16.95-.93,5.41-3.13,9.6-9.91,7.54l-.11,0a17.94,17.94,0,0,1-1.9-1.9l-.1-.09a19.13,19.13,0,0,1-1.91-1.91l-.09-.09a20.25,20.25,0,0,1-1.91-1.91l-.09-.09A18.93,18.93,0,0,1,2762.11,386.37Z"/><path class="cls-25" d="M2726.08,1014.35c3.37.83,5.7.14,6.81-3.67,1.23-4.26,1.1-8.55,1.1-12.86q0-113.3,0-226.59c0-5.27-.87-10.8,4-14.79,11.59-2.5,22.63-6.85,34-10.21q0,138.6,0,277.2c0,4,.48,8.06-2.59,11.33l-3.42-.48c-2.09-1.54-4.78-.6-7-1.67C2746.05,1030.09,2735.38,1023.45,2726.08,1014.35Z"/><path class="cls-26" d="M2747.88,4.05q.06,176.37.11,352.73c0,4.32.42,8.82-4,11.62h0c-.59-.77-1.42-1.29-2.06-2-8.92-7.73-18.72-14.49-26.23-23.78-1-104.25-.22-208.51-.35-312.76,0-6.22-.88-12.84,4.53-17.76A80,80,0,0,1,2747.88,4.05Z"/><path class="cls-27" d="M2719.89,12.08q.06,159,.1,318c0,4.63.57,9.49-4.27,12.48-.6-.11-1.19-.23-1.79-.36-.65-.6-1.28-1.22-1.87-1.87l-.06-.05c-.7-.62-1.34-1.3-2-1.94h0a23.79,23.79,0,0,0-2.15-2c-7.12-3.18-11.89-9.29-17.7-14.11-2-92.06-.38-184.14-.81-276.21,0-7.56-1.05-15.46,4.6-21.88A75.85,75.85,0,0,1,2719.89,12.08Z"/><path class="cls-28" d="M2693.94,24.2q0,143.37,0,286.73c0,4.06,1.59,9-3.79,11.36l-.15,0a18,18,0,0,1-1.92-1.88l-.08-.07c-.68-.62-1.34-1.26-2-1.93l0,0c-.66-.67-1.39-1.26-2-2a77.28,77.28,0,0,1-16-16c-2.62-9.38-2.79-19-2.78-28.62q.12-104.12,0-208.22c0-8-.1-16,4.76-23A80.6,80.6,0,0,1,2693.94,24.2Z"/><path class="cls-29" d="M2546,688.39c-9.83,3.12-9.92,3.12-9.95,12.91-.06,22.63,0,45.25,0,67.87a72.43,72.43,0,0,1-.22,9c-.85,6.7-2.28,7.53-10.09,6.6l.16.12a5,5,0,0,0-1.89-2.46l0,0c-1.18-1.11-.73-3.43-2.86-3.82-3.39-5.08-7.86-6.71-14.18-6.68-56.41.3-112.81.19-169.22.14-5.26,0-10.62.63-15.72-1.36,10.33-.1,20.64-.27,31-.28q73.9,0,147.82-.06c3.54,0,7.27,1,11.93-1.8L2470,706.28c-7.35-18.06-4.36-36.93-4.26-55.55,0-6.32,2.68-10.91,10.16-10.31q26.74,18.42,53.47,36.86C2534.87,681.07,2541.22,683.54,2546,688.39Z"/><path class="cls-30" d="M2670,40.5q0,123.15-.08,246.29c0,4.57,1,9.37-1.94,13.55h0c-.67-.64-1.31-1.3-1.94-2l-.06-.06a19,19,0,0,1-1.87-1.94l-.13-.13a13,13,0,0,1-1.79-1.77l-2.26-3.85a11.29,11.29,0,0,0-2.08-2.23,91,91,0,0,1-19.91-28,27.36,27.36,0,0,0,1.45-9.74c-.31-55.38.2-110.76-.36-166.13A42.23,42.23,0,0,1,2641.88,70C2648.83,57.87,2659,48.77,2670,40.5Z"/><path class="cls-31" d="M2641.88,70c4.63,59.29.95,118.68,2.11,178a24.81,24.81,0,0,1-1.92,10.69c-.81,1.85-2.33,2.1-4.11,1.64h0c-1.15-1.1-.78-3-2.08-4l.07.07c-.6-.68-1.22-1.36-1.84-2a8.81,8.81,0,0,1-.18-1.78,12.93,12.93,0,0,0-1.87-2.24,7.06,7.06,0,0,1-.15-1.72,10.49,10.49,0,0,0-1.86-2.28c-10.7-20.68-17.19-42.52-18.16-65.88-.4-9.61-.71-10.07-10.44-10.09q-48-.1-95.93,0-80.94,0-161.88,0c-4.32,0-8.64-.31-12.94-.47,3.57-1.35,7.26-.66,10.88-.66q128.85-.07,257.7,0c13.07,0,11.68.67,12.59-11.64C2614.23,125.82,2623.63,96.39,2641.88,70Z"/><path class="cls-13" d="M2912,920.4c-1.13-3.92,2.16-5.6,4-8a3.34,3.34,0,0,1,1.37,2A12.32,12.32,0,0,1,2912,920.4Z"/><path class="cls-19" d="M3088.23,597.07c-.17-2.44.1-4.76,1.8-6.7C3090.18,592.8,3090,595.16,3088.23,597.07Z"/><path class="cls-15" d="M2759,1032.61c2.5-.15,4.91,0,7,1.67C2763.45,1034.56,2761,1034.47,2759,1032.61Z"/><path class="cls-19" d="M3090.25,589.39c-.16-2.54.05-5,1.82-7C3092.18,584.91,3092.12,587.38,3090.25,589.39Z"/><path class="cls-19" d="M3086.14,604.58a8.16,8.16,0,0,1,1.78-6.19C3088.12,600.69,3087.86,602.85,3086.14,604.58Z"/><path class="cls-19" d="M3084.24,611.13c-.17-2.47.12-4.82,2-6.71C3086.25,606.86,3086.08,609.24,3084.24,611.13Z"/><path class="cls-16" d="M3060.25,679.16a6.82,6.82,0,0,1,1.9-4.75C3062.16,676.25,3061.82,678,3060.25,679.16Z"/><path class="cls-12" d="M2986.08,820.51a5.64,5.64,0,0,1,2.57-4C2988.28,818.19,2987.69,819.68,2986.08,820.51Z"/><path class="cls-20" d="M3034.1,736.54a6.32,6.32,0,0,1,2.06-4.13A4.57,4.57,0,0,1,3034.1,736.54Z"/><path class="cls-14" d="M3010.24,780.73a5.2,5.2,0,0,1,2.52-4.16C3012.37,778.24,3011.89,779.84,3010.24,780.73Z"/><path class="cls-20" d="M3032.08,740.51a6.3,6.3,0,0,1,2.08-4.09A4.46,4.46,0,0,1,3032.08,740.51Z"/><path class="cls-20" d="M3030,744.43a6.41,6.41,0,0,1,2.1-4A4.6,4.6,0,0,1,3030,744.43Z"/><path class="cls-23" d="M2521.11,778.61a5.48,5.48,0,0,1,2.86,3.82C2522.33,781.67,2521.64,780.2,2521.11,778.61Z"/><path class="cls-16" d="M3056.23,688.71a6.23,6.23,0,0,1,1.85-4.31C3058.12,686.12,3057.78,687.67,3056.23,688.71Z"/><path class="cls-16" d="M3058.05,684.47l1.76-4.05A4.31,4.31,0,0,1,3058.05,684.47Z"/><path class="cls-16" d="M3054.46,692.92a5.32,5.32,0,0,1,1.9-4.47C3056.29,690.18,3056,691.83,3054.46,692.92Z"/><path class="cls-23" d="M2524,782.4l1.89,2.46A2.65,2.65,0,0,1,2524,782.4Z"/><path class="cls-18" d="M2607.79,892.44l2.08,2.42A2.86,2.86,0,0,1,2607.79,892.44Z"/><path class="cls-12" d="M2917.43,914.4l-1.37-2,2.56.38Z"/><path class="cls-1" d="M1436,1295.62c-8.91-52.34-29.73-98.18-68.94-135.39-37.49-35.58-81.4-58.59-130.81-71.75-57-15.18-114.93-18.23-173.47-12.5-47.2,4.61-92.37,16.56-134.52,38.58-71.84,37.54-120.25,94.55-142.14,173.15-4,14.56-3.78,11.62,9,14.32,47.86,10.1,95.82,19.79,143.75,29.61,19.85,4.06,39.71,8,60.19,12.19,1.11-4.31,2.08-8.12,3.07-11.93,9.9-38,33.1-63.1,71.65-73a174.65,174.65,0,0,1,60.54-4.24c40.54,3.94,71.57,29.85,82.57,68.06,3.35,11.64,4.17,23.57,4.08,35.6-.07,9.79-.09,9.79-9.82,9.86h-6c-52.66,0-105.32.13-158-.06-26-.09-52,.73-77.78,4.19-38.2,5.1-75.16,14.55-109.8,31.82-43.94,21.91-78.73,53.33-100,98.3-21.81,46.24-25.72,94.91-16.44,144.5,14.33,76.56,59.14,129.42,129.39,161.53,28.43,13,58.59,19.68,89.35,24.1,1.82,1.28,3.91.61,5.88.78H978.5c4.49.47,9.13-1,13.5,1h18c5.83-2.13,11.88-.45,17.81-1h16.31c2.64-.27,5.41.68,7.93-.82,4-.64,7.88-1.35,11.84-1.92,54.56-7.8,103.91-27.93,147.38-62.07,2.52-2,5.08-3.91,7.39-5.68,2.1,1.3,1.88,2.73,1.89,4,0,8.33-.12,16.66.08,25,.53,21.83,13.54,34.6,35.28,34.69,14.66.07,29.33,0,44,0,37,0,74,.08,111,0,15.85,0,27.62-9.12,32-23.74,1.37-4.6,1.13-9.24,1.13-13.88q0-156.48,0-312.95c0-6,.06-12,.44-18A703.09,703.09,0,0,0,1436,1295.62ZM1118.84,1656c-30.7,8.83-61.7,9.61-92.6.44a101,101,0,0,1-21.84-9.69c-46.36-26.84-43.49-93.87,1.52-118.79a108.67,108.67,0,0,1,51.65-13.47c25.31-.4,50.63-.1,76-.1v-.18q39.46,0,79,0c8,0,7.75.14,8.15,8.33C1224.06,1592,1176.19,1639.5,1118.84,1656Z"/><path class="cls-11" d="M2612,1317c-4-28.1-10.15-55.63-20.33-82.23-14-36.68-39.77-64.44-68.85-89.25-35.42-30.22-77.19-48.2-122.1-59.12-54.27-13.2-109.28-15.83-164.76-10.47-47.22,4.57-92.41,16.45-134.61,38.39-72.63,37.77-121.3,95.38-143,174.83-3.29,12-4.2,9.51,7.72,12.67.65.17,1.31.24,2,.38,64.23,13.2,128.44,26.51,192.72,39.51,13,2.63,10.48,4,13.58-8.31,10.33-41,35.5-66.77,77.39-75.64,14.8-3.13,29.69-4,44.71-3.68,53.57,1,100.71,37.89,97.3,108.78-.18,3.74-1.46,5.54-5.3,5.37-2.66-.12-5.33,0-8,0-56,0-112,.14-168-.06a507.63,507.63,0,0,0-84.61,6.3c-39.42,6.49-77.15,18-111.77,38.42-39,23-69.08,54.25-86.86,96.28-21.15,50-23.16,101.76-9.85,153.79,18.13,70.84,63.66,118.45,129.87,147.35,27.09,11.81,55.68,18,84.76,22.25,2.5,1.51,5.26.56,7.9.83h6.43c5.22.57,10.59-1.18,15.71,1h30c4.44-2,9.13-.53,13.68-1h10.84c2.5-.3,5.16.74,7.51-.88,3.27-.6,6.53-1.33,9.82-1.79,55.65-7.83,105.82-28.52,149.9-63.62,1.93-1.53,3.49-4.08,7.72-3.57,0,10.17-.3,20.39.06,30.58.69,19.56,13.73,32.35,33.21,32.4,52,.13,104,0,156,0a35.07,35.07,0,0,0,10.86-1.29c14-4.47,22.67-16.2,22.71-31.7.12-40.66-.2-81.33.1-122,.56-78.63-1.51-157.28,1.51-235.91A661.56,661.56,0,0,0,2612,1317Zm-288.13,325.44c-39.34,21.7-81.31,26-124.75,14.08a91.8,91.8,0,0,1-23.6-10.63c-44.33-27.17-40.9-90.64-.65-115.67,16.91-10.53,35.42-15.34,55-15.7,25.31-.47,50.64-.11,76-.11v-.19q38.47,0,77,0c10.56,0,10.5,0,10.64,10C2394.16,1577.73,2370,1617,2323.84,1642.42Z"/><path class="cls-32" d="M2952,680.43c-4.23-12.46-8.55-24.89-12.67-37.39-3.41-10.33-8.72-20-11.33-30.58a90.46,90.46,0,0,1-4.72-29.4q.08-254.26.05-508.52a125.18,125.18,0,0,1,.5-14c.59-5.19,2.64-9,8.67-8.82l-.21-.12c.39,2.12,2.79,1.46,3.8,2.72A110.93,110.93,0,0,1,2958.84,72c-3.49,2.64-4.72,6.32-4.78,10.5,0,3.66-.06,7.33-.06,11q0,285.12,0,570.26C2954,669.38,2954.73,675.13,2952,680.43Z"/><path class="cls-33" d="M2832,462.37l-27.87-32c1.84-9.21,1.1-18.54,1.11-27.81q.11-190.63.16-381.28c0-7-2.17-14.88,4.6-20.53l2.13-.71,2,.7c4.08,1.66,8.58-.34,12.65,1.46a55.88,55.88,0,0,1,21.64,4.06c-3.34,8.87-3.73,18.07-3.72,27.45q.12,202.26.05,404.52c0,6.32.31,12.68-.66,18.95-.87,5.66-3.44,9.41-10.08,7.27h0C2833.37,463.69,2832.62,463.09,2832,462.37Z"/><path class="cls-34" d="M2932.46,51.75c-3.3,2.32-4.5,5.59-4.44,9.51.06,3.32,0,6.65,0,10q0,270.62,0,541.22c-5.93-8-9.1-17.52-14-26.1-.74-.61-1.27-1.42-1.95-2.1,0-.64,0-1.27-.06-1.91-.72-.6-1.24-1.4-1.94-2h0c-.95-5.12-4.06-9.31-6-14a83.72,83.72,0,0,1-4.76-28.34q.06-240.18.05-480.34a94.38,94.38,0,0,1,.63-14c.72-4.84,3-8.07,8.46-7.82l-.22-.13c.66,1.94,2.81,1.47,4,2.52l-.14-.09c.84,1.42,2.88.89,3.73,2.3l.17.1a17.07,17.07,0,0,0,2.45,1.67A45.78,45.78,0,0,1,2932.46,51.75Z"/><path class="cls-35" d="M2908.39,35.87a9.77,9.77,0,0,0-4.33,8.53c0,2.33-.06,4.67-.06,7q0,257.48,0,514.93c-8-13.33-16.92-26.05-24-39.89-4.23-7.2-4.58-15.26-4.58-23.19q-.21-232.1.1-464.19c0-6.7-2.2-15.6,8.81-17.1l-.2-.09c.84,1.87,3,1.36,4.29,2.36A76.9,76.9,0,0,1,2908.39,35.87Z"/><path class="cls-36" d="M2884.3,22c-3.34,3.26-4.34,7.35-4.29,11.85,0,3.33,0,6.66,0,10l0,482.64-4-2.08c-.62.83-1.26.83-1.9,0l-.09-3.87c-1.14-1.14-.65-3-1.91-4.12,0-.64,0-1.28,0-1.92-.65-.71-1.33-1.39-2-2.09-5.1-6.35-10.86-12.25-14-19.95-1.54-151.48-.25-303-.66-454.43,0-6.33-.16-12.66.33-19,.29-3.69.61-7.41,4.59-9.3l1.83.86a5.1,5.1,0,0,0,3.11,1.63l.56-.15.33.48a5.06,5.06,0,0,0,3.11,1.68A43.16,43.16,0,0,1,2884.3,22Z"/><path class="cls-37" d="M2860.21,9.71c-.07,5.66-.2,11.32-.2,17q0,226.23-.11,452.47c0,4.6,2.27,10.33-4,13.26l0,0c-.57-.77-1.39-1.28-2-2-6.92-8.47-14.63-16.32-20-26,3.78-.79,5.74-3.17,5.88-7,.12-3.33.14-6.66.14-10q0-211.92,0-423.85c0-3,.17-6,0-9-.35-6,2.64-8.53,8.39-8.36A19.94,19.94,0,0,1,2860.21,9.71Z"/><path class="cls-38" d="M2826.74,2.16c-4.28,0-8.66,1-12.65-1.46L2820,.26C2822.25,1,2824.77.59,2826.74,2.16Z"/><path class="cls-19" d="M3093.74,296.34a9,9,0,0,1-1.62-6.3A7.59,7.59,0,0,1,3093.74,296.34Z"/><path class="cls-19" d="M3086.18,268.32c-1.8-1.81-2.12-4.07-2-6.47C3086.06,263.63,3086.2,266,3086.18,268.32Z"/><path class="cls-19" d="M3088,274.36a8.1,8.1,0,0,1-1.82-6.18C3087.88,269.9,3088.13,272.07,3088,274.36Z"/><path class="cls-19" d="M3091.8,288.34a8.76,8.76,0,0,1-1.72-6.19A7.56,7.56,0,0,1,3091.8,288.34Z"/><path class="cls-36" d="M2888.39,24.23a5.8,5.8,0,0,1-4.29-2.36C2885.85,22.08,2887.43,22.59,2888.39,24.23Z"/><path class="cls-35" d="M2912.19,38.26a5.46,5.46,0,0,1-4-2.51C2909.84,36.05,2911.35,36.62,2912.19,38.26Z"/><path class="cls-35" d="M2915.78,40.47q-1.87-1.14-3.73-2.3A4.55,4.55,0,0,1,2915.78,40.47Z"/><path class="cls-34" d="M2936.05,54.35a5.3,5.3,0,0,1-3.8-2.72A5.11,5.11,0,0,1,2936.05,54.35Z"/><path class="cls-16" d="M3059.86,200.35l-1.93-3.83A4.31,4.31,0,0,1,3059.86,200.35Z"/><path class="cls-20" d="M3038.41,162.24a5.91,5.91,0,0,1-2.44-3.81A4.79,4.79,0,0,1,3038.41,162.24Z"/><path class="cls-19" d="M3089.74,280.34a7.5,7.5,0,0,1-1.49-4.79A5.1,5.1,0,0,1,3089.74,280.34Z"/><path class="cls-20" d="M3034.5,156.21a5.68,5.68,0,0,1-2.53-3.78A4.75,4.75,0,0,1,3034.5,156.21Z"/><path class="cls-37" d="M2869.15,14.21,2866,12.53A3.31,3.31,0,0,1,2869.15,14.21Z"/><path class="cls-37" d="M2865.15,12.2,2862,10.57A3.24,3.24,0,0,1,2865.15,12.2Z"/><path class="cls-35" d="M2918.4,42.24,2916,40.57A2.57,2.57,0,0,1,2918.4,42.24Z"/><path class="cls-14" d="M3012.41,126.24l-2.13-2.56A3.06,3.06,0,0,1,3012.41,126.24Z"/><path class="cls-14" d="M3014.16,128.32c-.68-.79-1.35-1.59-2-2.39A2.77,2.77,0,0,1,3014.16,128.32Z"/><path class="cls-20" d="M3032,152.39l-1.8-2.45A2.54,2.54,0,0,1,3032,152.39Z"/><path class="cls-20" d="M3036,158.39c-.58-.84-1.17-1.68-1.75-2.53A2.55,2.55,0,0,1,3036,158.39Z"/><path class="cls-16" d="M3057.88,196.42l-1.74-3.22A3.44,3.44,0,0,1,3057.88,196.42Z"/><path class="cls-16" d="M3061.77,204.34c-.54-1.05-1.08-2.1-1.63-3.15A3.29,3.29,0,0,1,3061.77,204.34Z"/><path class="cls-38" d="M2810,.71q0,205.08,0,410.15c0,3.66.07,7.33-.18,11-.26,3.83-1.5,7.21-5.68,8.51Q2791,416.78,2778,403.21c-2.74-2.86-5.92-5.33-7.84-8.91,4.23-1.25,5.43-4.64,5.7-8.46.26-3.64.18-7.31.18-11q0-187,0-374.06l5.69-.8,20.53,0,5.94,0A11.4,11.4,0,0,1,2810,.71Z"/><path class="cls-11" d="M2196.05,470.41c6.94-9.47,15.65-17.31,24.33-25,23-20.34,47.2-39,73.79-54.49,37.47-21.79,76.87-38.6,120.23-43.91,36.13-4.43,72.43-5.64,108.3,2.17,51,11.11,91,39.05,122.9,80.05,14.22,18.26,21.39,38.68,21.89,60.92,1,45.37-22.73,84.4-74.28,92.42-29.83,4.64-54.91-5.93-77.72-23.77-16-12.51-29.79-27.55-45.95-39.91-27.59-21.1-56.36-40.23-88-54.77-31.19-14.32-63.47-24.24-98.18-23.67A141.84,141.84,0,0,0,2203.71,466c-2.45,1.68-4.54,4-7.75,4.28Z"/><path class="cls-39" d="M2475.94,640.42c-5.1,2.72-6.13,7.32-6,12.59.52,15.48-1,31,1,46.45.27,2.2-.57,4.54-.9,6.82-4.65-4.85-7.88-10.73-11.54-16.27-18.2-27.49-37.08-54.54-54.49-82.56-2.29-3.69-4.7-7.34-5.53-11.66-1.31-6.92,2.53-10.52,9.1-8.29,4.71,1.59,9.63,3.46,13.16,7C2437.78,611.46,2457.41,625.27,2475.94,640.42Z"/><path class="cls-35" d="M2872,516.38q1,2.05,1.91,4.12C2873.3,519.13,2872.66,517.75,2872,516.38Z"/><path class="cls-30" d="M2635.9,256.39a6.46,6.46,0,0,1,2.08,4A6.51,6.51,0,0,1,2635.9,256.39Z"/><path class="cls-38" d="M2766.09,390.37l1.91,1.91Z"/><path class="cls-37" d="M2832,462.37l2,2Z"/><polygon class="cls-11" points="2195.96 470.32 2195.64 470.75 2196.05 470.41 2195.96 470.32"/><path class="cls-36" d="M2854,490.37l2,2Z"/><path class="cls-35" d="M2870,512.38c.66.69,1.33,1.38,2,2.08C2871.32,513.76,2870.65,513.07,2870,512.38Z"/><path class="cls-35" d="M2874,524.37h1.9c0,.69-.06,1.39-.1,2.09Z"/><path class="cls-28" d="M2662.21,294.47l1.79,1.77Z"/><path class="cls-30" d="M2630.07,246.41l1.86,2.28Z"/><path class="cls-38" d="M2768.1,392.37l1.9,1.9Z"/><path class="cls-30" d="M2632.08,250.41c.62.74,1.24,1.49,1.87,2.23C2633.32,251.9,2632.7,251.16,2632.08,250.41Z"/><path class="cls-30" d="M2634.13,254.43l1.84,2Z"/><path class="cls-28" d="M2657.87,288.39c.69.75,1.39,1.49,2.08,2.23C2659.26,289.88,2658.56,289.14,2657.87,288.39Z"/><path class="cls-28" d="M2664.13,296.37l1.87,1.94Z"/><path class="cls-28" d="M2666.06,298.37l1.94,2Z"/><path class="cls-27" d="M2684,316.37l2,2Z"/><path class="cls-27" d="M2686,318.37l2,1.93Z"/><path class="cls-27" d="M2688.08,320.37l1.92,1.88Z"/><path class="cls-26" d="M2707.85,336.4c.71.67,1.43,1.33,2.15,2C2709.28,337.73,2708.56,337.07,2707.85,336.4Z"/><path class="cls-26" d="M2710,338.38l2,1.94Z"/><path class="cls-26" d="M2712.06,340.37l1.87,1.87C2713.31,341.61,2712.68,341,2712.06,340.37Z"/><path class="cls-24" d="M2741.94,366.38l2.06,2Z"/><path class="cls-38" d="M2762.11,386.37l1.89,1.91Z"/><path class="cls-38" d="M2764.09,388.37l1.91,1.91Z"/><path class="cls-13" d="M2910,580.33l1.94,2Z"/><path class="cls-13" d="M2912,584.26l1.95,2.1Z"/></g></g></svg>